<?xml version="1.0" encoding="utf-8"?>
<!-- Generator: Adobe Illustrator 18.0.0, SVG Export Plug-In . SVG Version: 6.00 Build 0)  -->
<!DOCTYPE svg PUBLIC "-//W3C//DTD SVG 1.1//EN" "http://www.w3.org/Graphics/SVG/1.1/DTD/svg11.dtd">
<svg version="1.1" id="Google_x2B_" xmlns="http://www.w3.org/2000/svg" xmlns:xlink="http://www.w3.org/1999/xlink" x="0px"
	 y="0px" viewBox="0 0 540 360" enable-background="new 0 0 540 360" xml:space="preserve">
<path fill="#FFFFFF" d="M125.8,100.6c0,26.9,9,46.3,26.7,57.7c14.5,9.4,31.3,10.8,40.1,10.8c2.1,0,3.8-0.1,5-0.2
	c0,0-2.8,18.1,10.6,35.9h-0.6c-23.2,0-98.9,4.8-98.9,67.1c0,63.3,69.5,66.5,83.4,66.5c1.1,0,1.7,0,1.7,0c0.1,0,1.1,0,2.8,0
	c8.9,0,32.1-1.1,53.6-11.6c27.9-13.5,42-37.1,42-69.9c0-31.8-21.5-50.7-37.2-64.5c-9.6-8.4-17.9-15.7-17.9-22.8
	c0-7.2,6.1-12.6,13.7-19.5c12.4-11.1,24.1-26.9,24.1-56.7c0-26.2-3.4-43.8-24.4-55c2.2-1.1,9.9-1.9,13.7-2.5
	c11.4-1.5,28-3.3,28-12.6v-1.8h-82.8C208.7,21.6,125.8,24.7,125.8,100.6z M259.4,262.8c1.6,25.3-20.1,44-52.6,46.3
	c-33,2.4-60.2-12.4-61.8-37.7c-0.8-12.2,4.6-24,15-33.5c10.6-9.6,25.2-15.5,41-16.7c1.9-0.1,3.7-0.2,5.6-0.2
	C237.2,221,257.9,239,259.4,262.8z M237.8,83.3c8.1,28.6-4.1,58.4-23.7,64c-2.2,0.6-4.6,0.9-6.9,0.9c-17.9,0-35.6-18.1-42.2-43.1
	c-3.7-14-3.4-26.2,0.8-38c4.1-11.6,11.6-19.4,20.9-22.1c2.2-0.6,4.6-1,6.9-1C215.3,44.1,229.2,53,237.8,83.3z M378,144V90h-36v54
	h-54v36h54v54h36v-54h54v-36H378z"/>
</svg>
